<?xml version="1.0" encoding="UTF-8"?>
<svg width="1024" height="500" xmlns="http://www.w3.org/2000/svg" xmlns:xlink="http://www.w3.org/1999/xlink">
    <defs>
        <linearGradient id="bgGradient" x1="0%" y1="0%" x2="0%" y2="100%">
            <stop offset="0%" style="stop-color:#0a0a0f;stop-opacity:1" />
            <stop offset="50%" style="stop-color:#1a1a2e;stop-opacity:1" />
            <stop offset="100%" style="stop-color:#0a0a0f;stop-opacity:1" />
        </linearGradient>
        <filter id="glow">
            <feGaussianBlur stdDeviation="10" result="coloredBlur"/>
            <feMerge>
                <feMergeNode in="coloredBlur"/>
                <feMergeNode in="SourceGraphic"/>
            </feMerge>
        </filter>
    </defs>

    <!-- Background -->
    <rect width="1024" height="500" fill="url(#bgGradient)"/>

    <!-- Pattern overlay -->
    <rect x="0" y="0" width="18" height="18" fill="rgba(255,255,255,0.02)"/><rect x="0" y="40" width="18" height="18" fill="rgba(255,255,255,0.02)"/><rect x="0" y="80" width="18" height="18" fill="rgba(255,255,255,0.02)"/><rect x="0" y="120" width="18" height="18" fill="rgba(255,255,255,0.02)"/><rect x="0" y="160" width="18" height="18" fill="rgba(255,255,255,0.02)"/><rect x="0" y="200" width="18" height="18" fill="rgba(255,255,255,0.02)"/><rect x="0" y="240" width="18" height="18" fill="rgba(255,255,255,0.02)"/><rect x="0" y="280" width="18" height="18" fill="rgba(255,255,255,0.02)"/><rect x="0" y="320" width="18" height="18" fill="rgba(255,255,255,0.02)"/><rect x="0" y="360" width="18" height="18" fill="rgba(255,255,255,0.02)"/><rect x="0" y="400" width="18" height="18" fill="rgba(255,255,255,0.02)"/><rect x="0" y="440" width="18" height="18" fill="rgba(255,255,255,0.02)"/><rect x="40" y="0" width="18" height="18" fill="rgba(255,255,255,0.02)"/><rect x="40" y="40" width="18" height="18" fill="rgba(255,255,255,0.02)"/><rect x="40" y="80" width="18" height="18" fill="rgba(255,255,255,0.02)"/><rect x="40" y="120" width="18" height="18" fill="rgba(255,255,255,0.02)"/><rect x="40" y="160" width="18" height="18" fill="rgba(255,255,255,0.02)"/><rect x="40" y="200" width="18" height="18" fill="rgba(255,255,255,0.02)"/><rect x="40" y="240" width="18" height="18" fill="rgba(255,255,255,0.02)"/><rect x="40" y="280" width="18" height="18" fill="rgba(255,255,255,0.02)"/><rect x="40" y="320" width="18" height="18" fill="rgba(255,255,255,0.02)"/><rect x="40" y="360" width="18" height="18" fill="rgba(255,255,255,0.02)"/><rect x="40" y="400" width="18" height="18" fill="rgba(255,255,255,0.02)"/><rect x="40" y="440" width="18" height="18" fill="rgba(255,255,255,0.02)"/><rect x="80" y="0" width="18" height="18" fill="rgba(255,255,255,0.02)"/><rect x="80" y="40" width="18" height="18" fill="rgba(255,255,255,0.02)"/><rect x="80" y="80" width="18" height="18" fill="rgba(255,255,255,0.02)"/><rect x="80" y="120" width="18" height="18" fill="rgba(255,255,255,0.02)"/><rect x="80" y="160" width="18" height="18" fill="rgba(255,255,255,0.02)"/><rect x="80" y="200" width="18" height="18" fill="rgba(255,255,255,0.02)"/><rect x="80" y="240" width="18" height="18" fill="rgba(255,255,255,0.02)"/><rect x="80" y="280" width="18" height="18" fill="rgba(255,255,255,0.02)"/><rect x="80" y="320" width="18" height="18" fill="rgba(255,255,255,0.02)"/><rect x="80" y="360" width="18" height="18" fill="rgba(255,255,255,0.02)"/><rect x="80" y="400" width="18" height="18" fill="rgba(255,255,255,0.02)"/><rect x="80" y="440" width="18" height="18" fill="rgba(255,255,255,0.02)"/><rect x="120" y="0" width="18" height="18" fill="rgba(255,255,255,0.02)"/><rect x="120" y="40" width="18" height="18" fill="rgba(255,255,255,0.02)"/><rect x="120" y="80" width="18" height="18" fill="rgba(255,255,255,0.02)"/><rect x="120" y="120" width="18" height="18" fill="rgba(255,255,255,0.02)"/><rect x="120" y="160" width="18" height="18" fill="rgba(255,255,255,0.02)"/><rect x="120" y="200" width="18" height="18" fill="rgba(255,255,255,0.02)"/><rect x="120" y="240" width="18" height="18" fill="rgba(255,255,255,0.02)"/><rect x="120" y="280" width="18" height="18" fill="rgba(255,255,255,0.02)"/><rect x="120" y="320" width="18" height="18" fill="rgba(255,255,255,0.02)"/><rect x="120" y="360" width="18" height="18" fill="rgba(255,255,255,0.02)"/><rect x="120" y="400" width="18" height="18" fill="rgba(255,255,255,0.02)"/><rect x="120" y="440" width="18" height="18" fill="rgba(255,255,255,0.02)"/><rect x="160" y="0" width="18" height="18" fill="rgba(255,255,255,0.02)"/><rect x="160" y="40" width="18" height="18" fill="rgba(255,255,255,0.02)"/><rect x="160" y="80" width="18" height="18" fill="rgba(255,255,255,0.02)"/><rect x="160" y="120" width="18" height="18" fill="rgba(255,255,255,0.02)"/><rect x="160" y="160" width="18" height="18" fill="rgba(255,255,255,0.02)"/><rect x="160" y="200" width="18" height="18" fill="rgba(255,255,255,0.02)"/><rect x="160" y="240" width="18" height="18" fill="rgba(255,255,255,0.02)"/><rect x="160" y="280" width="18" height="18" fill="rgba(255,255,255,0.02)"/><rect x="160" y="320" width="18" height="18" fill="rgba(255,255,255,0.02)"/><rect x="160" y="360" width="18" height="18" fill="rgba(255,255,255,0.02)"/><rect x="160" y="400" width="18" height="18" fill="rgba(255,255,255,0.02)"/><rect x="160" y="440" width="18" height="18" fill="rgba(255,255,255,0.02)"/><rect x="200" y="0" width="18" height="18" fill="rgba(255,255,255,0.02)"/><rect x="200" y="40" width="18" height="18" fill="rgba(255,255,255,0.02)"/><rect x="200" y="80" width="18" height="18" fill="rgba(255,255,255,0.02)"/><rect x="200" y="120" width="18" height="18" fill="rgba(255,255,255,0.02)"/><rect x="200" y="160" width="18" height="18" fill="rgba(255,255,255,0.02)"/><rect x="200" y="200" width="18" height="18" fill="rgba(255,255,255,0.02)"/><rect x="200" y="240" width="18" height="18" fill="rgba(255,255,255,0.02)"/><rect x="200" y="280" width="18" height="18" fill="rgba(255,255,255,0.02)"/><rect x="200" y="320" width="18" height="18" fill="rgba(255,255,255,0.02)"/><rect x="200" y="360" width="18" height="18" fill="rgba(255,255,255,0.02)"/><rect x="200" y="400" width="18" height="18" fill="rgba(255,255,255,0.02)"/><rect x="200" y="440" width="18" height="18" fill="rgba(255,255,255,0.02)"/><rect x="240" y="0" width="18" height="18" fill="rgba(255,255,255,0.02)"/><rect x="240" y="40" width="18" height="18" fill="rgba(255,255,255,0.02)"/><rect x="240" y="80" width="18" height="18" fill="rgba(255,255,255,0.02)"/><rect x="240" y="120" width="18" height="18" fill="rgba(255,255,255,0.02)"/><rect x="240" y="160" width="18" height="18" fill="rgba(255,255,255,0.02)"/><rect x="240" y="200" width="18" height="18" fill="rgba(255,255,255,0.02)"/><rect x="240" y="240" width="18" height="18" fill="rgba(255,255,255,0.02)"/><rect x="240" y="280" width="18" height="18" fill="rgba(255,255,255,0.02)"/><rect x="240" y="320" width="18" height="18" fill="rgba(255,255,255,0.02)"/><rect x="240" y="360" width="18" height="18" fill="rgba(255,255,255,0.02)"/><rect x="240" y="400" width="18" height="18" fill="rgba(255,255,255,0.02)"/><rect x="240" y="440" width="18" height="18" fill="rgba(255,255,255,0.02)"/><rect x="280" y="0" width="18" height="18" fill="rgba(255,255,255,0.02)"/><rect x="280" y="40" width="18" height="18" fill="rgba(255,255,255,0.02)"/><rect x="280" y="80" width="18" height="18" fill="rgba(255,255,255,0.02)"/><rect x="280" y="120" width="18" height="18" fill="rgba(255,255,255,0.02)"/><rect x="280" y="160" width="18" height="18" fill="rgba(255,255,255,0.02)"/><rect x="280" y="200" width="18" height="18" fill="rgba(255,255,255,0.02)"/><rect x="280" y="240" width="18" height="18" fill="rgba(255,255,255,0.02)"/><rect x="280" y="280" width="18" height="18" fill="rgba(255,255,255,0.02)"/><rect x="280" y="320" width="18" height="18" fill="rgba(255,255,255,0.02)"/><rect x="280" y="360" width="18" height="18" fill="rgba(255,255,255,0.02)"/><rect x="280" y="400" width="18" height="18" fill="rgba(255,255,255,0.02)"/><rect x="280" y="440" width="18" height="18" fill="rgba(255,255,255,0.02)"/><rect x="320" y="0" width="18" height="18" fill="rgba(255,255,255,0.02)"/><rect x="320" y="40" width="18" height="18" fill="rgba(255,255,255,0.02)"/><rect x="320" y="80" width="18" height="18" fill="rgba(255,255,255,0.02)"/><rect x="320" y="120" width="18" height="18" fill="rgba(255,255,255,0.02)"/><rect x="320" y="160" width="18" height="18" fill="rgba(255,255,255,0.02)"/><rect x="320" y="200" width="18" height="18" fill="rgba(255,255,255,0.02)"/><rect x="320" y="240" width="18" height="18" fill="rgba(255,255,255,0.02)"/><rect x="320" y="280" width="18" height="18" fill="rgba(255,255,255,0.02)"/><rect x="320" y="320" width="18" height="18" fill="rgba(255,255,255,0.02)"/><rect x="320" y="360" width="18" height="18" fill="rgba(255,255,255,0.02)"/><rect x="320" y="400" width="18" height="18" fill="rgba(255,255,255,0.02)"/><rect x="320" y="440" width="18" height="18" fill="rgba(255,255,255,0.02)"/><rect x="360" y="0" width="18" height="18" fill="rgba(255,255,255,0.02)"/><rect x="360" y="40" width="18" height="18" fill="rgba(255,255,255,0.02)"/><rect x="360" y="80" width="18" height="18" fill="rgba(255,255,255,0.02)"/><rect x="360" y="120" width="18" height="18" fill="rgba(255,255,255,0.02)"/><rect x="360" y="160" width="18" height="18" fill="rgba(255,255,255,0.02)"/><rect x="360" y="200" width="18" height="18" fill="rgba(255,255,255,0.02)"/><rect x="360" y="240" width="18" height="18" fill="rgba(255,255,255,0.02)"/><rect x="360" y="280" width="18" height="18" fill="rgba(255,255,255,0.02)"/><rect x="360" y="320" width="18" height="18" fill="rgba(255,255,255,0.02)"/><rect x="360" y="360" width="18" height="18" fill="rgba(255,255,255,0.02)"/><rect x="360" y="400" width="18" height="18" fill="rgba(255,255,255,0.02)"/><rect x="360" y="440" width="18" height="18" fill="rgba(255,255,255,0.02)"/><rect x="400" y="0" width="18" height="18" fill="rgba(255,255,255,0.02)"/><rect x="400" y="40" width="18" height="18" fill="rgba(255,255,255,0.02)"/><rect x="400" y="80" width="18" height="18" fill="rgba(255,255,255,0.02)"/><rect x="400" y="120" width="18" height="18" fill="rgba(255,255,255,0.02)"/><rect x="400" y="160" width="18" height="18" fill="rgba(255,255,255,0.02)"/><rect x="400" y="200" width="18" height="18" fill="rgba(255,255,255,0.02)"/><rect x="400" y="240" width="18" height="18" fill="rgba(255,255,255,0.02)"/><rect x="400" y="280" width="18" height="18" fill="rgba(255,255,255,0.02)"/><rect x="400" y="320" width="18" height="18" fill="rgba(255,255,255,0.02)"/><rect x="400" y="360" width="18" height="18" fill="rgba(255,255,255,0.02)"/><rect x="400" y="400" width="18" height="18" fill="rgba(255,255,255,0.02)"/><rect x="400" y="440" width="18" height="18" fill="rgba(255,255,255,0.02)"/><rect x="440" y="0" width="18" height="18" fill="rgba(255,255,255,0.02)"/><rect x="440" y="40" width="18" height="18" fill="rgba(255,255,255,0.02)"/><rect x="440" y="80" width="18" height="18" fill="rgba(255,255,255,0.02)"/><rect x="440" y="120" width="18" height="18" fill="rgba(255,255,255,0.02)"/><rect x="440" y="160" width="18" height="18" fill="rgba(255,255,255,0.02)"/><rect x="440" y="200" width="18" height="18" fill="rgba(255,255,255,0.02)"/><rect x="440" y="240" width="18" height="18" fill="rgba(255,255,255,0.02)"/><rect x="440" y="280" width="18" height="18" fill="rgba(255,255,255,0.02)"/><rect x="440" y="320" width="18" height="18" fill="rgba(255,255,255,0.02)"/><rect x="440" y="360" width="18" height="18" fill="rgba(255,255,255,0.02)"/><rect x="440" y="400" width="18" height="18" fill="rgba(255,255,255,0.02)"/><rect x="440" y="440" width="18" height="18" fill="rgba(255,255,255,0.02)"/><rect x="480" y="0" width="18" height="18" fill="rgba(255,255,255,0.02)"/><rect x="480" y="40" width="18" height="18" fill="rgba(255,255,255,0.02)"/><rect x="480" y="80" width="18" height="18" fill="rgba(255,255,255,0.02)"/><rect x="480" y="120" width="18" height="18" fill="rgba(255,255,255,0.02)"/><rect x="480" y="160" width="18" height="18" fill="rgba(255,255,255,0.02)"/><rect x="480" y="200" width="18" height="18" fill="rgba(255,255,255,0.02)"/><rect x="480" y="240" width="18" height="18" fill="rgba(255,255,255,0.02)"/><rect x="480" y="280" width="18" height="18" fill="rgba(255,255,255,0.02)"/><rect x="480" y="320" width="18" height="18" fill="rgba(255,255,255,0.02)"/><rect x="480" y="360" width="18" height="18" fill="rgba(255,255,255,0.02)"/><rect x="480" y="400" width="18" height="18" fill="rgba(255,255,255,0.02)"/><rect x="480" y="440" width="18" height="18" fill="rgba(255,255,255,0.02)"/><rect x="520" y="0" width="18" height="18" fill="rgba(255,255,255,0.02)"/><rect x="520" y="40" width="18" height="18" fill="rgba(255,255,255,0.02)"/><rect x="520" y="80" width="18" height="18" fill="rgba(255,255,255,0.02)"/><rect x="520" y="120" width="18" height="18" fill="rgba(255,255,255,0.02)"/><rect x="520" y="160" width="18" height="18" fill="rgba(255,255,255,0.02)"/><rect x="520" y="200" width="18" height="18" fill="rgba(255,255,255,0.02)"/><rect x="520" y="240" width="18" height="18" fill="rgba(255,255,255,0.02)"/><rect x="520" y="280" width="18" height="18" fill="rgba(255,255,255,0.02)"/><rect x="520" y="320" width="18" height="18" fill="rgba(255,255,255,0.02)"/><rect x="520" y="360" width="18" height="18" fill="rgba(255,255,255,0.02)"/><rect x="520" y="400" width="18" height="18" fill="rgba(255,255,255,0.02)"/><rect x="520" y="440" width="18" height="18" fill="rgba(255,255,255,0.02)"/><rect x="560" y="0" width="18" height="18" fill="rgba(255,255,255,0.02)"/><rect x="560" y="40" width="18" height="18" fill="rgba(255,255,255,0.02)"/><rect x="560" y="80" width="18" height="18" fill="rgba(255,255,255,0.02)"/><rect x="560" y="120" width="18" height="18" fill="rgba(255,255,255,0.02)"/><rect x="560" y="160" width="18" height="18" fill="rgba(255,255,255,0.02)"/><rect x="560" y="200" width="18" height="18" fill="rgba(255,255,255,0.02)"/><rect x="560" y="240" width="18" height="18" fill="rgba(255,255,255,0.02)"/><rect x="560" y="280" width="18" height="18" fill="rgba(255,255,255,0.02)"/><rect x="560" y="320" width="18" height="18" fill="rgba(255,255,255,0.02)"/><rect x="560" y="360" width="18" height="18" fill="rgba(255,255,255,0.02)"/><rect x="560" y="400" width="18" height="18" fill="rgba(255,255,255,0.02)"/><rect x="560" y="440" width="18" height="18" fill="rgba(255,255,255,0.02)"/><rect x="600" y="0" width="18" height="18" fill="rgba(255,255,255,0.02)"/><rect x="600" y="40" width="18" height="18" fill="rgba(255,255,255,0.02)"/><rect x="600" y="80" width="18" height="18" fill="rgba(255,255,255,0.02)"/><rect x="600" y="120" width="18" height="18" fill="rgba(255,255,255,0.02)"/><rect x="600" y="160" width="18" height="18" fill="rgba(255,255,255,0.02)"/><rect x="600" y="200" width="18" height="18" fill="rgba(255,255,255,0.02)"/><rect x="600" y="240" width="18" height="18" fill="rgba(255,255,255,0.02)"/><rect x="600" y="280" width="18" height="18" fill="rgba(255,255,255,0.02)"/><rect x="600" y="320" width="18" height="18" fill="rgba(255,255,255,0.02)"/><rect x="600" y="360" width="18" height="18" fill="rgba(255,255,255,0.02)"/><rect x="600" y="400" width="18" height="18" fill="rgba(255,255,255,0.02)"/><rect x="600" y="440" width="18" height="18" fill="rgba(255,255,255,0.02)"/><rect x="640" y="0" width="18" height="18" fill="rgba(255,255,255,0.02)"/><rect x="640" y="40" width="18" height="18" fill="rgba(255,255,255,0.02)"/><rect x="640" y="80" width="18" height="18" fill="rgba(255,255,255,0.02)"/><rect x="640" y="120" width="18" height="18" fill="rgba(255,255,255,0.02)"/><rect x="640" y="160" width="18" height="18" fill="rgba(255,255,255,0.02)"/><rect x="640" y="200" width="18" height="18" fill="rgba(255,255,255,0.02)"/><rect x="640" y="240" width="18" height="18" fill="rgba(255,255,255,0.02)"/><rect x="640" y="280" width="18" height="18" fill="rgba(255,255,255,0.02)"/><rect x="640" y="320" width="18" height="18" fill="rgba(255,255,255,0.02)"/><rect x="640" y="360" width="18" height="18" fill="rgba(255,255,255,0.02)"/><rect x="640" y="400" width="18" height="18" fill="rgba(255,255,255,0.02)"/><rect x="640" y="440" width="18" height="18" fill="rgba(255,255,255,0.02)"/><rect x="680" y="0" width="18" height="18" fill="rgba(255,255,255,0.02)"/><rect x="680" y="40" width="18" height="18" fill="rgba(255,255,255,0.02)"/><rect x="680" y="80" width="18" height="18" fill="rgba(255,255,255,0.02)"/><rect x="680" y="120" width="18" height="18" fill="rgba(255,255,255,0.02)"/><rect x="680" y="160" width="18" height="18" fill="rgba(255,255,255,0.02)"/><rect x="680" y="200" width="18" height="18" fill="rgba(255,255,255,0.02)"/><rect x="680" y="240" width="18" height="18" fill="rgba(255,255,255,0.02)"/><rect x="680" y="280" width="18" height="18" fill="rgba(255,255,255,0.02)"/><rect x="680" y="320" width="18" height="18" fill="rgba(255,255,255,0.02)"/><rect x="680" y="360" width="18" height="18" fill="rgba(255,255,255,0.02)"/><rect x="680" y="400" width="18" height="18" fill="rgba(255,255,255,0.02)"/><rect x="680" y="440" width="18" height="18" fill="rgba(255,255,255,0.02)"/><rect x="720" y="0" width="18" height="18" fill="rgba(255,255,255,0.02)"/><rect x="720" y="40" width="18" height="18" fill="rgba(255,255,255,0.02)"/><rect x="720" y="80" width="18" height="18" fill="rgba(255,255,255,0.02)"/><rect x="720" y="120" width="18" height="18" fill="rgba(255,255,255,0.02)"/><rect x="720" y="160" width="18" height="18" fill="rgba(255,255,255,0.02)"/><rect x="720" y="200" width="18" height="18" fill="rgba(255,255,255,0.02)"/><rect x="720" y="240" width="18" height="18" fill="rgba(255,255,255,0.02)"/><rect x="720" y="280" width="18" height="18" fill="rgba(255,255,255,0.02)"/><rect x="720" y="320" width="18" height="18" fill="rgba(255,255,255,0.02)"/><rect x="720" y="360" width="18" height="18" fill="rgba(255,255,255,0.02)"/><rect x="720" y="400" width="18" height="18" fill="rgba(255,255,255,0.02)"/><rect x="720" y="440" width="18" height="18" fill="rgba(255,255,255,0.02)"/><rect x="760" y="0" width="18" height="18" fill="rgba(255,255,255,0.02)"/><rect x="760" y="40" width="18" height="18" fill="rgba(255,255,255,0.02)"/><rect x="760" y="80" width="18" height="18" fill="rgba(255,255,255,0.02)"/><rect x="760" y="120" width="18" height="18" fill="rgba(255,255,255,0.02)"/><rect x="760" y="160" width="18" height="18" fill="rgba(255,255,255,0.02)"/><rect x="760" y="200" width="18" height="18" fill="rgba(255,255,255,0.02)"/><rect x="760" y="240" width="18" height="18" fill="rgba(255,255,255,0.02)"/><rect x="760" y="280" width="18" height="18" fill="rgba(255,255,255,0.02)"/><rect x="760" y="320" width="18" height="18" fill="rgba(255,255,255,0.02)"/><rect x="760" y="360" width="18" height="18" fill="rgba(255,255,255,0.02)"/><rect x="760" y="400" width="18" height="18" fill="rgba(255,255,255,0.02)"/><rect x="760" y="440" width="18" height="18" fill="rgba(255,255,255,0.02)"/><rect x="800" y="0" width="18" height="18" fill="rgba(255,255,255,0.02)"/><rect x="800" y="40" width="18" height="18" fill="rgba(255,255,255,0.02)"/><rect x="800" y="80" width="18" height="18" fill="rgba(255,255,255,0.02)"/><rect x="800" y="120" width="18" height="18" fill="rgba(255,255,255,0.02)"/><rect x="800" y="160" width="18" height="18" fill="rgba(255,255,255,0.02)"/><rect x="800" y="200" width="18" height="18" fill="rgba(255,255,255,0.02)"/><rect x="800" y="240" width="18" height="18" fill="rgba(255,255,255,0.02)"/><rect x="800" y="280" width="18" height="18" fill="rgba(255,255,255,0.02)"/><rect x="800" y="320" width="18" height="18" fill="rgba(255,255,255,0.02)"/><rect x="800" y="360" width="18" height="18" fill="rgba(255,255,255,0.02)"/><rect x="800" y="400" width="18" height="18" fill="rgba(255,255,255,0.02)"/><rect x="800" y="440" width="18" height="18" fill="rgba(255,255,255,0.02)"/><rect x="840" y="0" width="18" height="18" fill="rgba(255,255,255,0.02)"/><rect x="840" y="40" width="18" height="18" fill="rgba(255,255,255,0.02)"/><rect x="840" y="80" width="18" height="18" fill="rgba(255,255,255,0.02)"/><rect x="840" y="120" width="18" height="18" fill="rgba(255,255,255,0.02)"/><rect x="840" y="160" width="18" height="18" fill="rgba(255,255,255,0.02)"/><rect x="840" y="200" width="18" height="18" fill="rgba(255,255,255,0.02)"/><rect x="840" y="240" width="18" height="18" fill="rgba(255,255,255,0.02)"/><rect x="840" y="280" width="18" height="18" fill="rgba(255,255,255,0.02)"/><rect x="840" y="320" width="18" height="18" fill="rgba(255,255,255,0.02)"/><rect x="840" y="360" width="18" height="18" fill="rgba(255,255,255,0.02)"/><rect x="840" y="400" width="18" height="18" fill="rgba(255,255,255,0.02)"/><rect x="840" y="440" width="18" height="18" fill="rgba(255,255,255,0.02)"/><rect x="880" y="0" width="18" height="18" fill="rgba(255,255,255,0.02)"/><rect x="880" y="40" width="18" height="18" fill="rgba(255,255,255,0.02)"/><rect x="880" y="80" width="18" height="18" fill="rgba(255,255,255,0.02)"/><rect x="880" y="120" width="18" height="18" fill="rgba(255,255,255,0.02)"/><rect x="880" y="160" width="18" height="18" fill="rgba(255,255,255,0.02)"/><rect x="880" y="200" width="18" height="18" fill="rgba(255,255,255,0.02)"/><rect x="880" y="240" width="18" height="18" fill="rgba(255,255,255,0.02)"/><rect x="880" y="280" width="18" height="18" fill="rgba(255,255,255,0.02)"/><rect x="880" y="320" width="18" height="18" fill="rgba(255,255,255,0.02)"/><rect x="880" y="360" width="18" height="18" fill="rgba(255,255,255,0.02)"/><rect x="880" y="400" width="18" height="18" fill="rgba(255,255,255,0.02)"/><rect x="880" y="440" width="18" height="18" fill="rgba(255,255,255,0.02)"/><rect x="920" y="0" width="18" height="18" fill="rgba(255,255,255,0.02)"/><rect x="920" y="40" width="18" height="18" fill="rgba(255,255,255,0.02)"/><rect x="920" y="80" width="18" height="18" fill="rgba(255,255,255,0.02)"/><rect x="920" y="120" width="18" height="18" fill="rgba(255,255,255,0.02)"/><rect x="920" y="160" width="18" height="18" fill="rgba(255,255,255,0.02)"/><rect x="920" y="200" width="18" height="18" fill="rgba(255,255,255,0.02)"/><rect x="920" y="240" width="18" height="18" fill="rgba(255,255,255,0.02)"/><rect x="920" y="280" width="18" height="18" fill="rgba(255,255,255,0.02)"/><rect x="920" y="320" width="18" height="18" fill="rgba(255,255,255,0.02)"/><rect x="920" y="360" width="18" height="18" fill="rgba(255,255,255,0.02)"/><rect x="920" y="400" width="18" height="18" fill="rgba(255,255,255,0.02)"/><rect x="920" y="440" width="18" height="18" fill="rgba(255,255,255,0.02)"/><rect x="960" y="0" width="18" height="18" fill="rgba(255,255,255,0.02)"/><rect x="960" y="40" width="18" height="18" fill="rgba(255,255,255,0.02)"/><rect x="960" y="80" width="18" height="18" fill="rgba(255,255,255,0.02)"/><rect x="960" y="120" width="18" height="18" fill="rgba(255,255,255,0.02)"/><rect x="960" y="160" width="18" height="18" fill="rgba(255,255,255,0.02)"/><rect x="960" y="200" width="18" height="18" fill="rgba(255,255,255,0.02)"/><rect x="960" y="240" width="18" height="18" fill="rgba(255,255,255,0.02)"/><rect x="960" y="280" width="18" height="18" fill="rgba(255,255,255,0.02)"/><rect x="960" y="320" width="18" height="18" fill="rgba(255,255,255,0.02)"/><rect x="960" y="360" width="18" height="18" fill="rgba(255,255,255,0.02)"/><rect x="960" y="400" width="18" height="18" fill="rgba(255,255,255,0.02)"/><rect x="960" y="440" width="18" height="18" fill="rgba(255,255,255,0.02)"/>

    <!-- Icon placeholder with glow -->
    <g filter="url(#glow)">
        <rect x="80" y="160" width="180" height="180" rx="30" fill="#FF0080"/>
        <rect x="120" y="220" width="100" height="60" fill="#0a0a0f"/>
    </g>

    <!-- Main Title -->
    <text x="300" y="220" font-family="Arial, sans-serif" font-size="68" font-weight="bold" fill="#ffffff">FreeShow Remote</text>

    <!-- Subtitle -->
    <text x="300" y="285" font-family="Arial, sans-serif" font-size="30" fill="#FF0080">Control Your Presentations</text>

    <!-- Tagline -->
    <text x="300" y="325" font-family="Arial, sans-serif" font-size="22" fill="rgba(255,255,255,0.7)">Mobile &amp; TV Remote for FreeShow</text>

    <!-- Decorative dots -->
    <circle cx="900" cy="80" r="2" fill="rgba(255,255,255,0.15)"/><circle cx="900" cy="115" r="2" fill="rgba(255,255,255,0.15)"/><circle cx="900" cy="150" r="2" fill="rgba(255,255,255,0.15)"/><circle cx="900" cy="185" r="2" fill="rgba(255,255,255,0.15)"/><circle cx="900" cy="220" r="2" fill="rgba(255,255,255,0.15)"/><circle cx="900" cy="255" r="2" fill="rgba(255,255,255,0.15)"/><circle cx="900" cy="290" r="2" fill="rgba(255,255,255,0.15)"/><circle cx="900" cy="325" r="2" fill="rgba(255,255,255,0.15)"/><circle cx="900" cy="360" r="2" fill="rgba(255,255,255,0.15)"/><circle cx="900" cy="395" r="2" fill="rgba(255,255,255,0.15)"/><circle cx="935" cy="80" r="2" fill="rgba(255,255,255,0.15)"/><circle cx="935" cy="115" r="2" fill="rgba(255,255,255,0.15)"/><circle cx="935" cy="150" r="2" fill="rgba(255,255,255,0.15)"/><circle cx="935" cy="185" r="2" fill="rgba(255,255,255,0.15)"/><circle cx="935" cy="220" r="2" fill="rgba(255,255,255,0.15)"/><circle cx="935" cy="255" r="2" fill="rgba(255,255,255,0.15)"/><circle cx="935" cy="290" r="2" fill="rgba(255,255,255,0.15)"/><circle cx="935" cy="325" r="2" fill="rgba(255,255,255,0.15)"/><circle cx="935" cy="360" r="2" fill="rgba(255,255,255,0.15)"/><circle cx="935" cy="395" r="2" fill="rgba(255,255,255,0.15)"/><circle cx="970" cy="80" r="2" fill="rgba(255,255,255,0.15)"/><circle cx="970" cy="115" r="2" fill="rgba(255,255,255,0.15)"/><circle cx="970" cy="150" r="2" fill="rgba(255,255,255,0.15)"/><circle cx="970" cy="185" r="2" fill="rgba(255,255,255,0.15)"/><circle cx="970" cy="220" r="2" fill="rgba(255,255,255,0.15)"/><circle cx="970" cy="255" r="2" fill="rgba(255,255,255,0.15)"/><circle cx="970" cy="290" r="2" fill="rgba(255,255,255,0.15)"/><circle cx="970" cy="325" r="2" fill="rgba(255,255,255,0.15)"/><circle cx="970" cy="360" r="2" fill="rgba(255,255,255,0.15)"/><circle cx="970" cy="395" r="2" fill="rgba(255,255,255,0.15)"/><circle cx="1005" cy="80" r="2" fill="rgba(255,255,255,0.15)"/><circle cx="1005" cy="115" r="2" fill="rgba(255,255,255,0.15)"/><circle cx="1005" cy="150" r="2" fill="rgba(255,255,255,0.15)"/><circle cx="1005" cy="185" r="2" fill="rgba(255,255,255,0.15)"/><circle cx="1005" cy="220" r="2" fill="rgba(255,255,255,0.15)"/><circle cx="1005" cy="255" r="2" fill="rgba(255,255,255,0.15)"/><circle cx="1005" cy="290" r="2" fill="rgba(255,255,255,0.15)"/><circle cx="1005" cy="325" r="2" fill="rgba(255,255,255,0.15)"/><circle cx="1005" cy="360" r="2" fill="rgba(255,255,255,0.15)"/><circle cx="1005" cy="395" r="2" fill="rgba(255,255,255,0.15)"/>
</svg>